<svg xmlns="http://www.w3.org/2000/svg" version="1.1" xmlns:xlink="http://www.w3.org/1999/xlink" viewBox="0 0 700 700" style="overflow: hidden; display: block;" width="700" height="700"><defs></defs><g id="two-0" transform="matrix(1 0 0 1 0 0)" opacity="1"><path transform="matrix(1 0 0 1 350 350)" id="two-4" d="M 329.556773 96.766599 C 304.600031 169.5316 143.243237 0.70444 98.831884 63.515395 C 71.286464 102.472868 164.062009 143.882929 165.984379 191.556185 C 167.270072 223.440354 159.004914 272.531564 128.113207 280.528794 C 88.085063 290.891262 58.314882 232.958079 29.264007 203.535643 C 10.389226 184.419453 6.923827 138.446937 -19.939366 138.681335 C -84.490785 139.244587 -77.322317 324.67047 -135.436091 296.563671 C -198.87905 265.879406 -37.933494 148.265908 -78.600042 90.709283 C -89.348015 75.497345 -116.342734 88.302664 -134.899006 86.694326 C -174.222426 83.286027 -240.276527 111.597779 -253.88937 74.548645 C -265.64908 42.543057 -184.563 34.025325 -182.343626 0 C -180.521809 -27.930353 -224.507444 -41.518989 -232.626434 -68.305284 C -240.183432 -93.237447 -243.003622 -125.200751 -228.998107 -147.168147 C -215.016948 -169.09734 -174.636258 -162.776928 -159.153708 -183.67317 C -135.824323 -215.160004 -163.302552 -271.165262 -137.17548 -300.372401 C -116.460051 -323.529929 -75.198317 -341.33443 -47.153469 -327.95958 C 8.203954 -301.559109 -36.353974 -173.285579 22.372517 -155.604277 C 49.596744 -147.407639 65.192437 -200.556173 93.358993 -204.427681 C 115.690801 -207.497199 136.561578 -189.31293 157.997309 -182.338616 C 185.88085 -173.266447 227.855825 -181.270653 242.888774 -156.095137 C 258.403683 -130.112486 239.356957 -92.852142 225.176512 -66.11779 C 210.780732 -38.977467 155.469963 -30.437999 159.636968 -0.000001 C 168.389402 63.932396 350.491569 35.728162 329.556773 96.766599 Z " fill="#a3c4fb" stroke="undefined" stroke-width="1" stroke-opacity="1" fill-opacity="1" visibility="visible" stroke-linecap="butt" stroke-linejoin="miter" stroke-miterlimit="4"></path></g></svg>